<svg version="1.1" id="Layer_1" xmlns="http://www.w3.org/2000/svg" xmlns:xlink="http://www.w3.org/1999/xlink" x="0px" y="0px"
	 width="100%" viewBox="0 0 505 505" enable-background="new 0 0 505 505" xml:space="preserve">
<path fill="#234258" opacity="1.000000" stroke="none" 
	d="
M322.000000,506.000000 
	C214.666687,506.000000 107.833382,506.000000 1.000057,506.000000 
	C1.000038,337.666718 1.000038,169.333466 1.000019,1.000148 
	C169.333237,1.000098 337.666473,1.000098 505.999756,1.000049 
	C505.999847,169.333191 505.999847,337.666382 505.999939,505.999786 
	C444.833344,506.000000 383.666656,506.000000 322.000000,506.000000 
M377.492310,84.162384 
	C373.327087,84.166229 369.129272,84.496277 365.005524,84.084610 
	C360.651886,83.649986 358.032715,85.460999 355.367157,88.690727 
	C311.469086,141.880707 267.456573,194.976257 223.478348,248.100143 
	C222.440826,249.353439 221.503281,250.689499 220.246948,252.345734 
	C228.754211,260.436707 237.014771,268.293030 245.563614,276.423553 
	C282.754211,231.268112 319.637207,186.486176 356.520203,141.704224 
	C356.902832,141.896042 357.285461,142.087860 357.668091,142.279678 
	C357.668091,203.473846 357.668091,264.668030 357.668091,326.145355 
	C369.210846,326.145355 380.299194,326.145355 391.425629,326.145355 
	C391.425629,245.369339 391.425629,164.871170 391.425629,84.160767 
	C386.804230,84.160767 382.645233,84.160767 377.492310,84.162384 
M114.071678,301.500000 
	C114.071678,309.628601 114.071678,317.757233 114.071678,326.204437 
	C125.626892,326.204437 136.712769,326.204437 148.276276,326.204437 
	C148.276276,264.864807 148.276276,203.690384 148.276276,142.515961 
	C148.625153,142.354996 148.974030,142.194031 149.322906,142.033066 
	C169.732224,166.465515 190.141541,190.897964 210.087067,214.775192 
	C218.534393,206.760391 226.835709,198.884140 235.373856,190.783188 
	C229.379364,183.615387 223.617966,176.746368 217.878098,169.859421 
	C195.378418,142.863373 172.904831,115.845490 150.347275,88.897896 
	C148.824326,87.078552 146.742630,84.522758 144.826675,84.438034 
	C134.729660,83.991539 124.602409,84.228821 114.070076,84.228821 
	C114.070076,156.670776 114.070076,228.585388 114.071678,301.500000 
M274.500000,374.928009 
	C214.574753,374.928009 154.649506,374.928009 94.832367,374.928009 
	C94.832367,386.585754 94.832367,397.651276 94.832367,408.746918 
	C200.557007,408.746918 305.827606,408.746918 411.319427,408.746918 
	C411.319427,397.417328 411.319427,386.342438 411.319427,374.924927 
	C365.770111,374.924927 320.635071,374.924927 274.500000,374.928009 
z"/>
<path fill="#FAFAFA" opacity="1.000000" stroke="none" 
	d="
M377.989288,84.161575 
	C382.645233,84.160767 386.804230,84.160767 391.425629,84.160767 
	C391.425629,164.871170 391.425629,245.369339 391.425629,326.145355 
	C380.299194,326.145355 369.210846,326.145355 357.668091,326.145355 
	C357.668091,264.668030 357.668091,203.473846 357.668091,142.279678 
	C357.285461,142.087860 356.902832,141.896042 356.520203,141.704224 
	C319.637207,186.486176 282.754211,231.268112 245.563614,276.423553 
	C237.014771,268.293030 228.754211,260.436707 220.246948,252.345734 
	C221.503281,250.689499 222.440826,249.353439 223.478348,248.100143 
	C267.456573,194.976257 311.469086,141.880707 355.367157,88.690727 
	C358.032715,85.460999 360.651886,83.649986 365.005524,84.084610 
	C369.129272,84.496277 373.327087,84.166229 377.989288,84.161575 
z"/>
<path fill="#F9FAFA" opacity="1.000000" stroke="none" 
	d="
M114.070877,301.000000 
	C114.070076,228.585388 114.070076,156.670776 114.070076,84.228821 
	C124.602409,84.228821 134.729660,83.991539 144.826675,84.438034 
	C146.742630,84.522758 148.824326,87.078552 150.347275,88.897896 
	C172.904831,115.845490 195.378418,142.863373 217.878098,169.859421 
	C223.617966,176.746368 229.379364,183.615387 235.373856,190.783188 
	C226.835709,198.884140 218.534393,206.760391 210.087067,214.775192 
	C190.141541,190.897964 169.732224,166.465515 149.322906,142.033066 
	C148.974030,142.194031 148.625153,142.354996 148.276276,142.515961 
	C148.276276,203.690384 148.276276,264.864807 148.276276,326.204437 
	C136.712769,326.204437 125.626892,326.204437 114.071678,326.204437 
	C114.071678,317.757233 114.071678,309.628601 114.070877,301.000000 
z"/>
<path fill="#F9FAFA" opacity="1.000000" stroke="none" 
	d="
M275.000000,374.926453 
	C320.635071,374.924927 365.770111,374.924927 411.319427,374.924927 
	C411.319427,386.342438 411.319427,397.417328 411.319427,408.746918 
	C305.827606,408.746918 200.557007,408.746918 94.832367,408.746918 
	C94.832367,397.651276 94.832367,386.585754 94.832367,374.928009 
	C154.649506,374.928009 214.574753,374.928009 275.000000,374.926453 
z"/>
</svg>
